<svg width="32" height="35" viewBox="0 0 32 35" fill="none" xmlns="http://www.w3.org/2000/svg">
<path d="M6.95653 9.81634V1.42179C6.95653 1.05073 7.10312 0.694865 7.36404 0.432485C7.62496 0.170104 7.97884 0.0226998 8.34784 0.0226998C8.71683 0.0226998 9.07072 0.170104 9.33164 0.432485C9.59256 0.694865 9.73914 1.05073 9.73914 1.42179V9.81634C9.73914 10.1874 9.59256 10.5433 9.33164 10.8057C9.07072 11.068 8.71683 11.2154 8.34784 11.2154C7.97884 11.2154 7.62496 11.068 7.36404 10.8057C7.10312 10.5433 6.95653 10.1874 6.95653 9.81634ZM32 1.42179V33.6009C32 33.972 31.8534 34.3278 31.5925 34.5902C31.3316 34.8526 30.9777 35 30.6087 35C30.2397 35 29.8858 34.8526 29.6249 34.5902C29.364 34.3278 29.2174 33.972 29.2174 33.6009V25.2064H20.8696C20.5006 25.2064 20.1467 25.059 19.8858 24.7966C19.6248 24.5342 19.4783 24.1783 19.4783 23.8073C19.5429 20.4559 19.9638 17.1211 20.7339 13.8597C22.4348 6.77857 25.6591 2.03215 30.0609 0.136376C30.2724 0.0452435 30.5032 0.00831396 30.7324 0.0288975C30.9617 0.0494811 31.1823 0.126934 31.3744 0.254317C31.5666 0.3817 31.7243 0.555033 31.8335 0.758785C31.9427 0.962537 31.9999 1.19034 32 1.42179ZM29.2174 3.85271C23.6226 8.14968 22.527 18.6166 22.313 22.4082H29.2174V3.85271ZM15.2852 1.19269C15.258 1.00898 15.1946 0.832565 15.0989 0.673735C15.0031 0.514905 14.8768 0.376839 14.7275 0.267591C14.5781 0.158343 14.4086 0.0801007 14.2288 0.0374262C14.049 -0.0052482 13.8626 -0.0114997 13.6804 0.0190362C13.4982 0.0495721 13.3239 0.116284 13.1676 0.215282C13.0113 0.314279 12.8762 0.443579 12.7701 0.59564C12.6641 0.747702 12.5892 0.919481 12.5498 1.10096C12.5104 1.28243 12.5074 1.46997 12.5409 1.65264L13.9131 9.92652C13.9131 11.4108 13.3267 12.8342 12.283 13.8838C11.2394 14.9333 9.82382 15.5229 8.34784 15.5229C6.87185 15.5229 5.45631 14.9333 4.41263 13.8838C3.36895 12.8342 2.78262 11.4108 2.78262 9.92652L4.15306 1.65264C4.18653 1.46997 4.1835 1.28243 4.14414 1.10096C4.10478 0.919481 4.02988 0.747702 3.92381 0.59564C3.81773 0.443579 3.68261 0.314279 3.52633 0.215282C3.37004 0.116284 3.19571 0.0495721 3.01352 0.0190362C2.83132 -0.0114997 2.6449 -0.0052482 2.46514 0.0374262C2.28537 0.0801007 2.11585 0.158343 1.96647 0.267591C1.81709 0.376839 1.69083 0.514905 1.59507 0.673735C1.49931 0.832565 1.43596 1.00898 1.40871 1.19269L0.0174042 9.58724C0.0055005 9.66302 -0.000315131 9.73963 1.31571e-05 9.81634C0.00279311 11.7992 0.702479 13.7173 1.97543 15.2316C3.24839 16.746 5.01267 17.7591 6.95653 18.092V33.6009C6.95653 33.972 7.10312 34.3278 7.36404 34.5902C7.62496 34.8526 7.97884 35 8.34784 35C8.71683 35 9.07072 34.8526 9.33164 34.5902C9.59256 34.3278 9.73914 33.972 9.73914 33.6009V18.092C11.683 17.7591 13.4473 16.746 14.7202 15.2316C15.9932 13.7173 16.6929 11.7992 16.6957 9.81634C16.6954 9.73958 16.689 9.66297 16.6765 9.58724L15.2852 1.19269Z" fill="#919191"/>
</svg>
