<svg width="30" height="30" viewBox="0 0 30 30" fill="none" xmlns="http://www.w3.org/2000/svg">
<path d="M10.9091 0H2.72727C2.00396 0 1.31026 0.287337 0.7988 0.7988C0.287337 1.31026 0 2.00396 0 2.72727V10.9091C0 11.6324 0.287337 12.3261 0.7988 12.8376C1.31026 13.349 2.00396 13.6364 2.72727 13.6364H10.9091C11.6324 13.6364 12.3261 13.349 12.8376 12.8376C13.349 12.3261 13.6364 11.6324 13.6364 10.9091V2.72727C13.6364 2.00396 13.349 1.31026 12.8376 0.7988C12.3261 0.287337 11.6324 0 10.9091 0ZM10.9091 10.9091H2.72727V2.72727H10.9091V10.9091ZM27.2727 0H19.0909C18.3676 0 17.6739 0.287337 17.1624 0.7988C16.651 1.31026 16.3636 2.00396 16.3636 2.72727V10.9091C16.3636 11.6324 16.651 12.3261 17.1624 12.8376C17.6739 13.349 18.3676 13.6364 19.0909 13.6364H27.2727C27.996 13.6364 28.6897 13.349 29.2012 12.8376C29.7127 12.3261 30 11.6324 30 10.9091V2.72727C30 2.00396 29.7127 1.31026 29.2012 0.7988C28.6897 0.287337 27.996 0 27.2727 0ZM27.2727 10.9091H19.0909V2.72727H27.2727V10.9091ZM10.9091 16.3636H2.72727C2.00396 16.3636 1.31026 16.651 0.7988 17.1624C0.287337 17.6739 0 18.3676 0 19.0909V27.2727C0 27.996 0.287337 28.6897 0.7988 29.2012C1.31026 29.7127 2.00396 30 2.72727 30H10.9091C11.6324 30 12.3261 29.7127 12.8376 29.2012C13.349 28.6897 13.6364 27.996 13.6364 27.2727V19.0909C13.6364 18.3676 13.349 17.6739 12.8376 17.1624C12.3261 16.651 11.6324 16.3636 10.9091 16.3636ZM10.9091 27.2727H2.72727V19.0909H10.9091V27.2727ZM27.2727 16.3636H19.0909C18.3676 16.3636 17.6739 16.651 17.1624 17.1624C16.651 17.6739 16.3636 18.3676 16.3636 19.0909V27.2727C16.3636 27.996 16.651 28.6897 17.1624 29.2012C17.6739 29.7127 18.3676 30 19.0909 30H27.2727C27.996 30 28.6897 29.7127 29.2012 29.2012C29.7127 28.6897 30 27.996 30 27.2727V19.0909C30 18.3676 29.7127 17.6739 29.2012 17.1624C28.6897 16.651 27.996 16.3636 27.2727 16.3636ZM27.2727 27.2727H19.0909V19.0909H27.2727V27.2727Z" fill="#919191"/>
</svg>
