<svg width="36" height="32" viewBox="0 0 36 32" fill="none" xmlns="http://www.w3.org/2000/svg">
<path d="M5.14302 12.8H30.7795C31.1636 12.8019 31.5432 12.7178 31.8904 12.5539C32.2375 12.3899 32.5433 12.1503 32.7853 11.8527C33.0272 11.5551 33.1991 11.2071 33.2883 10.8344C33.3775 10.4617 33.3817 10.0737 33.3005 9.6992C32.109 4.08 25.659 0 17.9613 0C10.2636 0 3.81356 4.08 2.62203 9.6992C2.54088 10.0737 2.54505 10.4617 2.63423 10.8344C2.7234 11.2071 2.89531 11.5551 3.13726 11.8527C3.37921 12.1503 3.68504 12.3899 4.03219 12.5539C4.37934 12.7178 4.75895 12.8019 5.14302 12.8ZM17.9613 2.56C24.3471 2.56 29.8622 5.8576 30.7795 10.24H5.14302L5.13179 10.2288C6.06033 5.8576 11.5754 2.56 17.9613 2.56ZM34.2002 20.5568L27.6042 22.9568L21.6497 20.5712C21.344 20.4492 21.0029 20.4492 20.6972 20.5712L14.7635 22.9408L8.82027 20.5712C8.52768 20.4546 8.2023 20.4494 7.90617 20.5568L0.849953 23.1168C0.551726 23.2478 0.31462 23.487 0.186763 23.7861C0.0589053 24.0851 0.0498765 24.4214 0.161509 24.7269C0.273141 25.0323 0.497069 25.2839 0.787843 25.4306C1.07862 25.5773 1.41445 25.6081 1.72717 25.5168L3.84884 24.7504V25.6C3.84884 27.2974 4.52468 28.9252 5.72768 30.1255C6.93068 31.3257 8.56229 32 10.2636 32H25.659C27.3603 32 28.9919 31.3257 30.1949 30.1255C31.3979 28.9252 32.0737 27.2974 32.0737 25.6V24.0528L35.0774 22.9632C35.2458 22.914 35.4024 22.8309 35.5373 22.7189C35.6722 22.607 35.7827 22.4686 35.8619 22.3124C35.9411 22.1561 35.9874 21.9853 35.9977 21.8105C36.0081 21.6358 35.9825 21.4607 35.9224 21.2962C35.8622 21.1317 35.7689 20.9813 35.6482 20.8542C35.5275 20.7271 35.3819 20.6261 35.2205 20.5574C35.0591 20.4887 34.8852 20.4537 34.7097 20.4547C34.5342 20.4557 34.3608 20.4927 34.2002 20.5632V20.5568ZM29.5078 25.6C29.5078 26.6184 29.1023 27.5952 28.3805 28.3153C27.6587 29.0354 26.6797 29.44 25.659 29.44H10.2636C9.24281 29.44 8.26384 29.0354 7.54204 28.3153C6.82024 27.5952 6.41474 26.6184 6.41474 25.6V23.8208L8.31832 23.1296L14.2728 25.5088C14.5786 25.6308 14.9196 25.6308 15.2254 25.5088L21.159 23.1392L27.0927 25.5088C27.3852 25.6254 27.7106 25.6306 28.0068 25.5232L29.4934 24.984L29.5078 25.6ZM0 16.64C0 16.3005 0.135167 15.9749 0.375767 15.7349C0.616366 15.4949 0.942689 15.36 1.28295 15.36H34.6396C34.9799 15.36 35.3062 15.4949 35.5468 15.7349C35.7874 15.9749 35.9225 16.3005 35.9225 16.64C35.9225 16.9795 35.7874 17.3051 35.5468 17.5451C35.3062 17.7851 34.9799 17.92 34.6396 17.92H1.28295C0.942689 17.92 0.616366 17.7851 0.375767 17.5451C0.135167 17.3051 0 16.9795 0 16.64Z" fill="#919191"/>
</svg>
