<svg width="32" height="35" viewBox="0 0 32 35" fill="none" xmlns="http://www.w3.org/2000/svg">
<path d="M32 17.5004C32 16.5059 31.611 15.5521 30.9185 14.8488C30.2261 14.1456 29.287 13.7505 28.3077 13.7505H17.2308V12.3443C18.2872 12.0656 19.2227 11.4389 19.8909 10.5624C20.559 9.68594 20.922 8.60911 20.9231 7.50064C20.9231 3.12574 16.8554 0.327367 16.6831 0.210182C16.4808 0.0731366 16.2431 0 16 0C15.7569 0 15.5192 0.0731366 15.3169 0.210182C15.1446 0.327367 11.0769 3.12574 11.0769 7.50064C11.078 8.60911 11.441 9.68594 12.1091 10.5624C12.7773 11.4389 13.7128 12.0656 14.7692 12.3443V13.7505H3.69231C2.71305 13.7505 1.77389 14.1456 1.08145 14.8488C0.38901 15.5521 0 16.5059 0 17.5004V21.1456C0.00126276 22.5092 0.432595 23.8366 1.23077 24.933V31.2501C1.23077 32.2446 1.61978 33.1984 2.31222 33.9017C3.00466 34.6049 3.94382 35 4.92308 35H27.0769C28.0562 35 28.9953 34.6049 29.6878 33.9017C30.3802 33.1984 30.7692 32.2446 30.7692 31.2501V24.933C31.5674 23.8366 31.9987 22.5092 32 21.1456V17.5004ZM13.5385 7.50064C13.5385 5.38037 15.0769 3.67885 16 2.84606C16.9231 3.67885 18.4615 5.38037 18.4615 7.50064C18.4615 8.16366 18.2022 8.79953 17.7406 9.26836C17.2789 9.73719 16.6528 10.0006 16 10.0006C15.3472 10.0006 14.7211 9.73719 14.2594 9.26836C13.7978 8.79953 13.5385 8.16366 13.5385 7.50064ZM2.46154 17.5004C2.46154 17.1689 2.59121 16.851 2.82202 16.6165C3.05284 16.3821 3.36589 16.2504 3.69231 16.2504H28.3077C28.6341 16.2504 28.9472 16.3821 29.178 16.6165C29.4088 16.851 29.5385 17.1689 29.5385 17.5004V21.1456C29.5385 23.2159 27.9292 24.944 25.9508 24.9987C25.4573 25.0129 24.966 24.9264 24.506 24.7444C24.046 24.5625 23.6266 24.2886 23.2726 23.9392C22.9186 23.5897 22.6372 23.1717 22.445 22.7098C22.2529 22.248 22.1539 21.7517 22.1538 21.2503C22.1538 20.9188 22.0242 20.6009 21.7934 20.3665C21.5625 20.132 21.2495 20.0003 20.9231 20.0003C20.5967 20.0003 20.2836 20.132 20.0528 20.3665C19.822 20.6009 19.6923 20.9188 19.6923 21.2503C19.6923 22.2449 19.3033 23.1987 18.6109 23.9019C17.9184 24.6052 16.9793 25.0002 16 25.0002C15.0207 25.0002 14.0816 24.6052 13.3891 23.9019C12.6967 23.1987 12.3077 22.2449 12.3077 21.2503C12.3077 20.9188 12.178 20.6009 11.9472 20.3665C11.7164 20.132 11.4033 20.0003 11.0769 20.0003C10.7505 20.0003 10.4375 20.132 10.2066 20.3665C9.97582 20.6009 9.84615 20.9188 9.84615 21.2503C9.84635 21.7518 9.74749 22.2483 9.55543 22.7103C9.36337 23.1723 9.082 23.5906 8.72798 23.9402C8.37396 24.2898 7.95448 24.5638 7.49436 24.7459C7.03425 24.9279 6.54284 25.0144 6.04923 25.0002C4.07077 24.944 2.46154 23.2159 2.46154 21.1456V17.5004ZM27.0769 32.5001H4.92308C4.59666 32.5001 4.28361 32.3684 4.05279 32.1339C3.82198 31.8995 3.69231 31.5816 3.69231 31.2501V26.9627C4.41275 27.2942 5.19092 27.4769 5.98154 27.5002C6.80408 27.5262 7.62331 27.383 8.39 27.0793C9.1567 26.7757 9.85504 26.3177 10.4431 25.733C10.6727 25.5057 10.8846 25.2607 11.0769 25.0002C11.6501 25.7764 12.3934 26.4064 13.2479 26.8404C14.1024 27.2743 15.0446 27.5002 16 27.5002C16.9554 27.5002 17.8976 27.2743 18.7521 26.8404C19.6066 26.4064 20.3499 25.7764 20.9231 25.0002C21.116 25.2597 21.3285 25.5037 21.5585 25.7299C22.7034 26.8689 24.2435 27.5047 25.8462 27.5002C25.9046 27.5002 25.9631 27.5002 26.0215 27.5002C26.8111 27.4765 27.5882 27.2938 28.3077 26.9627V31.2501C28.3077 31.5816 28.178 31.8995 27.9472 32.1339C27.7164 32.3684 27.4033 32.5001 27.0769 32.5001Z" fill="#919191"/>
</svg>
