<svg width="50" height="50" viewBox="0 0 50 50" fill="none" xmlns="http://www.w3.org/2000/svg">
<g clip-path="url(#clip0_26_29)">
<path d="M8.3335 16.6666C8.3335 14.4565 9.21147 12.3369 10.7743 10.7741C12.3371 9.21129 14.4567 8.33331 16.6668 8.33331H33.3335C35.5436 8.33331 37.6632 9.21129 39.226 10.7741C40.7889 12.3369 41.6668 14.4565 41.6668 16.6666V33.3333C41.6668 35.5434 40.7889 37.6631 39.226 39.2259C37.6632 40.7887 35.5436 41.6666 33.3335 41.6666H16.6668C14.4567 41.6666 12.3371 40.7887 10.7743 39.2259C9.21147 37.6631 8.3335 35.5434 8.3335 33.3333V16.6666Z" stroke="white" stroke-width="2" stroke-linecap="round" stroke-linejoin="round"/>
<path d="M18.75 25C18.75 26.6576 19.4085 28.2473 20.5806 29.4194C21.7527 30.5915 23.3424 31.25 25 31.25C26.6576 31.25 28.2473 30.5915 29.4194 29.4194C30.5915 28.2473 31.25 26.6576 31.25 25C31.25 23.3424 30.5915 21.7527 29.4194 20.5806C28.2473 19.4085 26.6576 18.75 25 18.75C23.3424 18.75 21.7527 19.4085 20.5806 20.5806C19.4085 21.7527 18.75 23.3424 18.75 25Z" stroke="white" stroke-width="2" stroke-linecap="round" stroke-linejoin="round"/>
<path d="M34.375 15.625V15.6458" stroke="white" stroke-width="2" stroke-linecap="round" stroke-linejoin="round"/>
</g>
<defs>
<clipPath id="clip0_26_29">
<rect width="50" height="50" fill="white"/>
</clipPath>
</defs>
</svg>
