<svg width="70" height="70" viewBox="0 0 70 70" fill="none" xmlns="http://www.w3.org/2000/svg">
<circle cx="35" cy="35" r="34" fill="#FDF7E5" stroke="#AF3E3E" stroke-width="2"/>
<path d="M60.493 36.7227L50.5588 46.8706L40.6247 36.7227C39.9694 36.0651 39.4533 35.2746 39.1088 34.4011C38.7643 33.5276 38.5988 32.59 38.6229 31.6473C38.647 30.7046 38.86 29.7773 39.2486 28.9237C39.6373 28.0701 40.193 27.3088 40.8809 26.6876C41.5688 26.0665 42.374 25.5989 43.2457 25.3145C44.1174 25.0301 45.0368 24.9348 45.9459 25.0349C46.855 25.1349 47.7342 25.428 48.5281 25.8957C49.322 26.3634 50.0134 26.9956 50.5588 27.7525C51.1066 27.0011 51.7988 26.3744 52.5922 25.9117C53.3855 25.4489 54.2629 25.1601 55.1695 25.0632C56.0761 24.9663 56.9923 25.0634 57.8608 25.3485C58.7293 25.6336 59.5314 26.1006 60.2169 26.7201C60.9024 27.3397 61.4565 28.0985 61.8446 28.9491C62.2327 29.7997 62.4464 30.7237 62.4723 31.6634C62.4982 32.6031 62.3358 33.5382 61.9952 34.4101C61.6546 35.2821 61.1432 36.0722 60.493 36.7309" fill="#ED9224"/>
<g clip-path="url(#clip0_26_44)">
<path d="M18.3423 32.8664C18.3423 34.8113 19.1149 36.6766 20.4902 38.0519C21.8655 39.4273 23.7308 40.1999 25.6758 40.1999C27.6208 40.1999 29.4861 39.4273 30.8614 38.0519C32.2367 36.6766 33.0093 34.8113 33.0093 32.8664C33.0093 30.9214 32.2367 29.0561 30.8614 27.6808C29.4861 26.3055 27.6208 25.5328 25.6758 25.5328C23.7308 25.5328 21.8655 26.3055 20.4902 27.6808C19.1149 29.0561 18.3423 30.9214 18.3423 32.8664Z" fill="#ED9224"/>
<path d="M14.6758 53.7185V50.0518C14.6758 48.1068 15.4484 46.2415 16.8237 44.8662C18.199 43.4909 20.0643 42.7183 22.0093 42.7183H29.3428C31.2878 42.7183 33.1531 43.4909 34.5284 44.8662C35.9037 46.2415 36.6764 48.1068 36.6764 50.0518V53.7185" stroke="#ED9224" stroke-width="2" stroke-linecap="round" stroke-linejoin="round"/>
</g>
<g clip-path="url(#clip1_26_44)">
<path d="M25.8121 12.25C27.7799 12.25 29.4235 13.6281 29.8236 15.4666C30.8743 15.1837 31.995 15.3277 32.939 15.8669C33.883 16.4061 34.5731 17.2964 34.8575 18.3418C35.1418 19.3873 34.9971 20.5023 34.4552 21.4417C33.9133 22.381 33.0186 23.0676 31.9679 23.3505V30.625H19.6564V23.3505C19.1361 23.2103 18.6487 22.9695 18.222 22.6419C17.7952 22.3142 17.4375 21.9061 17.1693 21.4409C16.9011 20.9757 16.7276 20.4625 16.6587 19.9306C16.5898 19.3987 16.6268 18.8585 16.7678 18.3408C16.9087 17.8231 17.1507 17.3382 17.48 16.9136C17.8093 16.489 18.2194 16.1331 18.687 15.8662C19.1545 15.5993 19.6703 15.4266 20.2049 15.3581C20.7395 15.2895 21.2824 15.3264 21.8027 15.4666C22.0015 14.5556 22.5077 13.7397 23.2371 13.1546C23.9665 12.5694 24.8752 12.2502 25.8121 12.25Z" fill="white" stroke="#ED9224" stroke-width="2" stroke-linecap="round" stroke-linejoin="round"/>
<path d="M20.125 25.375H30.625" stroke="#ED9224" stroke-width="2" stroke-linecap="round" stroke-linejoin="round"/>
</g>
<defs>
<clipPath id="clip0_26_44">
<rect width="44.0012" height="44.0012" fill="white" transform="translate(3.67529 20.0327)"/>
</clipPath>
<clipPath id="clip1_26_44">
<rect width="32.7998" height="32.7998" fill="white" transform="translate(9.63867 4.72498)"/>
</clipPath>
</defs>
</svg>
