<svg width="50" height="50" viewBox="0 0 50 50" fill="none" xmlns="http://www.w3.org/2000/svg">
<g clip-path="url(#clip0_26_25)">
<path d="M6.25 43.75L9.6875 35.8333C7.05763 32.1001 5.88056 27.5355 6.37718 22.9961C6.8738 18.4566 9.00997 14.2545 12.3848 11.1782C15.7596 8.10188 20.1411 6.36294 24.707 6.2877C29.2729 6.21247 33.7094 7.8061 37.1837 10.7695C40.6581 13.7329 42.9315 17.8625 43.5775 22.3831C44.2234 26.9037 43.1973 31.5046 40.6919 35.3224C38.1864 39.1403 34.3738 41.9125 29.9696 43.119C25.5653 44.3254 20.8721 43.8831 16.7708 41.875L6.25 43.75Z" stroke="white" stroke-width="2" stroke-linecap="round" stroke-linejoin="round"/>
<path d="M18.75 20.8333C18.75 21.1096 18.8597 21.3745 19.0551 21.5699C19.2504 21.7652 19.5154 21.875 19.7917 21.875C20.0679 21.875 20.3329 21.7652 20.5282 21.5699C20.7236 21.3745 20.8333 21.1096 20.8333 20.8333V18.75C20.8333 18.4737 20.7236 18.2088 20.5282 18.0134C20.3329 17.8181 20.0679 17.7083 19.7917 17.7083C19.5154 17.7083 19.2504 17.8181 19.0551 18.0134C18.8597 18.2088 18.75 18.4737 18.75 18.75V20.8333ZM18.75 20.8333C18.75 23.596 19.8475 26.2455 21.801 28.199C23.7545 30.1525 26.404 31.25 29.1667 31.25M29.1667 31.25H31.25C31.5263 31.25 31.7912 31.1402 31.9866 30.9449C32.1819 30.7495 32.2917 30.4846 32.2917 30.2083C32.2917 29.932 32.1819 29.6671 31.9866 29.4717C31.7912 29.2764 31.5263 29.1666 31.25 29.1666H29.1667C28.8904 29.1666 28.6254 29.2764 28.4301 29.4717C28.2347 29.6671 28.125 29.932 28.125 30.2083C28.125 30.4846 28.2347 30.7495 28.4301 30.9449C28.6254 31.1402 28.8904 31.25 29.1667 31.25Z" stroke="white" stroke-width="2" stroke-linecap="round" stroke-linejoin="round"/>
</g>
<defs>
<clipPath id="clip0_26_25">
<rect width="50" height="50" fill="white"/>
</clipPath>
</defs>
</svg>
