<svg width="37" height="37" viewBox="0 0 37 37" fill="none" xmlns="http://www.w3.org/2000/svg">
<g clip-path="url(#clip0_56_40)">
<path d="M13.8752 7.70834H10.7918C9.97408 7.70834 9.18982 8.03319 8.61158 8.61143C8.03335 9.18967 7.7085 9.97393 7.7085 10.7917V29.2917C7.7085 30.1094 8.03335 30.8937 8.61158 31.4719C9.18982 32.0502 9.97408 32.375 10.7918 32.375H26.2085C27.0262 32.375 27.8105 32.0502 28.3887 31.4719C28.967 30.8937 29.2918 30.1094 29.2918 29.2917V10.7917C29.2918 9.97393 28.967 9.18967 28.3887 8.61143C27.8105 8.03319 27.0262 7.70834 26.2085 7.70834H23.1252" stroke="white" stroke-width="2" stroke-linecap="round" stroke-linejoin="round"/>
<path d="M13.875 7.70833C13.875 6.89058 14.1999 6.10632 14.7781 5.52809C15.3563 4.94985 16.1406 4.625 16.9583 4.625H20.0417C20.8594 4.625 21.6437 4.94985 22.2219 5.52809C22.8001 6.10632 23.125 6.89058 23.125 7.70833C23.125 8.52608 22.8001 9.31034 22.2219 9.88858C21.6437 10.4668 20.8594 10.7917 20.0417 10.7917H16.9583C16.1406 10.7917 15.3563 10.4668 14.7781 9.88858C14.1999 9.31034 13.875 8.52608 13.875 7.70833Z" stroke="white" stroke-width="2" stroke-linecap="round" stroke-linejoin="round"/>
<path d="M13.875 18.5H23.125" stroke="white" stroke-width="2" stroke-linecap="round" stroke-linejoin="round"/>
<path d="M13.875 24.6667H23.125" stroke="white" stroke-width="2" stroke-linecap="round" stroke-linejoin="round"/>
</g>
<defs>
<clipPath id="clip0_56_40">
<rect width="37" height="37" fill="white"/>
</clipPath>
</defs>
</svg>
