<svg width="70" height="70" viewBox="0 0 70 70" fill="none" xmlns="http://www.w3.org/2000/svg">
<circle cx="35" cy="35" r="34" fill="#FDF7E5" stroke="#AF3E3E" stroke-width="2"/>
<path d="M15.3125 50.3125C15.3125 51.4728 15.7734 52.5856 16.5939 53.4061C17.4144 54.2266 18.5272 54.6875 19.6875 54.6875C20.8478 54.6875 21.9606 54.2266 22.7811 53.4061C23.6016 52.5856 24.0625 51.4728 24.0625 50.3125C24.0625 49.1522 23.6016 48.0394 22.7811 47.2189C21.9606 46.3984 20.8478 45.9375 19.6875 45.9375C18.5272 45.9375 17.4144 46.3984 16.5939 47.2189C15.7734 48.0394 15.3125 49.1522 15.3125 50.3125Z" stroke="#ED9224" stroke-width="4" stroke-linecap="round" stroke-linejoin="round"/>
<path d="M50.3125 24.0625C51.4728 24.0625 52.5856 23.6016 53.4061 22.7811C54.2266 21.9606 54.6875 20.8478 54.6875 19.6875C54.6875 18.5272 54.2266 17.4144 53.4061 16.5939C52.5856 15.7734 51.4728 15.3125 50.3125 15.3125C49.1522 15.3125 48.0394 15.7734 47.2189 16.5939C46.3984 17.4144 45.9375 18.5272 45.9375 19.6875C45.9375 20.8478 46.3984 21.9606 47.2189 22.7811C48.0394 23.6016 49.1522 24.0625 50.3125 24.0625Z" stroke="#ED9224" stroke-width="4" stroke-linecap="round" stroke-linejoin="round"/>
<path d="M32.8125 50.3125H44.8438C46.8743 50.3125 48.8217 49.5059 50.2575 48.07C51.6934 46.6342 52.5 44.6868 52.5 42.6562C52.5 40.6257 51.6934 38.6783 50.2575 37.2425C48.8217 35.8066 46.8743 35 44.8438 35H27.3438C25.3132 35 23.3658 34.1934 21.93 32.7575C20.4941 31.3217 19.6875 29.3743 19.6875 27.3438C19.6875 25.3132 20.4941 23.3658 21.93 21.93C23.3658 20.4941 25.3132 19.6875 27.3438 19.6875H37.1875" stroke="#ED9224" stroke-width="4" stroke-linecap="round" stroke-linejoin="round"/>
</svg>
