<svg width="70" height="70" viewBox="0 0 70 70" fill="none" xmlns="http://www.w3.org/2000/svg">
<circle cx="35" cy="35" r="34" fill="#FDF7E5" stroke="#AF3E3E" stroke-width="2"/>
<g clip-path="url(#clip0_26_197)">
<path d="M30.625 33.4797C30.625 33.1623 30.6875 32.8479 30.809 32.5547C30.9305 32.2614 31.1085 31.9949 31.333 31.7705C31.5574 31.546 31.8239 31.368 32.1172 31.2465C32.4104 31.125 32.7248 31.0625 33.0422 31.0625H36.9578C37.2752 31.0625 37.5896 31.125 37.8828 31.2465C38.1761 31.368 38.4426 31.546 38.667 31.7705C38.8915 31.9949 39.0695 32.2614 39.191 32.5547C39.3125 32.8479 39.375 33.1623 39.375 33.4797V54.8953C39.375 55.5364 39.1203 56.1512 38.667 56.6045C38.2137 57.0578 37.5989 57.3125 36.9578 57.3125H33.0422C32.4011 57.3125 31.7863 57.0578 31.333 56.6045C30.8797 56.1512 30.625 55.5364 30.625 54.8953V33.4797Z" fill="#ED9224"/>
<path d="M45.9375 20.3547C45.9375 19.7136 46.1922 19.0988 46.6455 18.6455C47.0988 18.1922 47.7136 17.9375 48.3547 17.9375H52.2703C52.9114 17.9375 53.5262 18.1922 53.9795 18.6455C54.4328 19.0988 54.6875 19.7136 54.6875 20.3547V54.8953C54.6875 55.5364 54.4328 56.1512 53.9795 56.6045C53.5262 57.0578 52.9114 57.3125 52.2703 57.3125H48.3547C47.7136 57.3125 47.0988 57.0578 46.6455 56.6045C46.1922 56.1512 45.9375 55.5364 45.9375 54.8953V20.3547Z" fill="#ED9224"/>
<path d="M15.3125 52.9375C15.3125 54.0978 15.7734 55.2106 16.5939 56.0311C17.4144 56.8516 18.5272 57.3125 19.6875 57.3125C20.8478 57.3125 21.9606 56.8516 22.7811 56.0311C23.6016 55.2106 24.0625 54.0978 24.0625 52.9375C24.0625 51.7772 23.6016 50.6644 22.7811 49.8439C21.9606 49.0234 20.8478 48.5625 19.6875 48.5625C18.5272 48.5625 17.4144 49.0234 16.5939 49.8439C15.7734 50.6644 15.3125 51.7772 15.3125 52.9375Z" fill="#ED9224"/>
<path d="M14.875 37.6251L21.875 31.0626L27.7083 25.375L39.375 13.7084" stroke="#ED9224" stroke-width="4" stroke-linecap="round" stroke-linejoin="round"/>
<path d="M29.1665 13.7084H39.3748V23.9167" stroke="#ED9224" stroke-width="4" stroke-linecap="round" stroke-linejoin="round"/>
</g>
<defs>
<clipPath id="clip0_26_197">
<rect width="52.5" height="52.5" fill="white" transform="translate(8.75 11.375)"/>
</clipPath>
</defs>
</svg>
